Coordinates
version=1
nRows=49
nColumns=12
inDegrees=yes

Units are S.I. units (second, meters, Newtons, ...)
Angles are in degrees

endheader
time	SC_y	SC_z	SC_x	AC_y	AC_z	AC_x	GH_y	GH_z	GH_yy	EL_x	PS_y
       0.0              -41.24          24.36          41.73          34.63         -3.394         -6.038          87.31          61.42         -48.83          32.45          86.67
   0.04154              -41.24          24.36          41.73          34.63         -3.395         -6.035          87.33          61.42         -48.84          32.47          86.68
   0.08309              -41.24          24.36          41.74          34.63         -3.396         -6.032          87.34          61.42         -48.84          32.48          86.68
    0.1246              -41.24          24.36          41.74          34.63         -3.396         -6.029          87.35          61.42         -48.85           32.5          86.69
    0.1662              -41.25          24.36          41.75          34.64         -3.397         -6.025          87.37          61.42         -48.86          32.52           86.7
    0.2077              -41.25          24.36          41.75          34.64         -3.398         -6.022          87.39          61.42         -48.86          32.54          86.71
    0.2493              -41.25          24.36          41.76          34.64         -3.399         -6.018          87.41          61.42         -48.87          32.56          86.72
    0.2908              -41.25          24.37          41.77          34.64           -3.4         -6.013          87.43          61.41         -48.88          32.58          86.73
    0.3323              -41.26          24.37          41.78          34.64         -3.401         -6.009          87.45          61.41         -48.88          32.61          86.74
    0.3739              -41.26          24.37          41.78          34.65         -3.402         -6.004          87.47          61.41         -48.89          32.63          86.76
    0.4154              -41.26          24.37          41.79          34.65         -3.403         -5.999          87.49          61.41          -48.9          32.66          86.77
     0.457              -41.27          24.37           41.8          34.65         -3.404         -5.993          87.52          61.41         -48.91          32.69          86.78
    0.4985              -41.27          24.37          41.81          34.65         -3.405         -5.987          87.55          61.41         -48.92          32.72           86.8
    0.5401              -41.27          24.38          41.82          34.66         -3.407          -5.98          87.58           61.4         -48.93          32.76          86.81
    0.5816              -41.28          24.38          41.83          34.66         -3.408         -5.973          87.61           61.4         -48.95           32.8          86.83
    0.6231              -41.28          24.38          41.85          34.66          -3.41         -5.965          87.65           61.4         -48.96          32.84          86.85
    0.6647              -41.29          24.38          41.86          34.67         -3.412         -5.957          87.69           61.4         -48.98          32.88          86.87
    0.7062              -41.29          24.39          41.88          34.67         -3.414         -5.947          87.73          61.39         -48.99          32.93           86.9
    0.7478               -41.3          24.39          41.89          34.68         -3.416         -5.937          87.77          61.39         -49.01          32.98          86.92
    0.7893              -41.31          24.39          41.91          34.68         -3.418         -5.926          87.82          61.39         -49.03          33.04          86.95
    0.8309              -41.31           24.4          41.93          34.69         -3.421         -5.914          87.88          61.38         -49.05           33.1          86.98
    0.8724              -41.32           24.4          41.95          34.69         -3.424         -5.901          87.94          61.38         -49.07          33.17          87.01
    0.9139              -41.33          24.41          41.98           34.7         -3.427         -5.886          88.01          61.38          -49.1          33.25          87.05
    0.9555              -41.34          24.41           42.0           34.7          -3.43          -5.87          88.08          61.37         -49.13          33.34          87.09
     0.997              -41.35          24.42          42.03          34.71         -3.434         -5.852          88.17          61.37         -49.16          33.43          87.14
     1.039              -41.36          24.42          42.07          34.72         -3.439         -5.831          88.26          61.36          -49.2          33.54          87.19
      1.08              -41.38          24.43           42.1          34.73         -3.444         -5.809          88.36          61.35         -49.24          33.66          87.24
     1.122              -41.39          24.44          42.15          34.74         -3.449         -5.783          88.48          61.35         -49.28          33.79          87.31
     1.163              -41.41          24.45          42.19          34.76         -3.455         -5.754          88.61          61.34         -49.33          33.94          87.38
     1.205              -41.43          24.46          42.25          34.77         -3.462         -5.722          88.76          61.33         -49.39          34.11          87.46
     1.246              -41.45          24.47          42.31          34.79          -3.47         -5.684          88.93          61.32         -49.45          34.31          87.55
     1.288              -41.48          24.48          42.38           34.8         -3.479         -5.641          89.13           61.3         -49.53          34.54          87.66
     1.329              -41.51           24.5          42.46          34.83          -3.49         -5.592          89.35          61.29         -49.62           34.8          87.78
     1.371              -41.54          24.51          42.55          34.85         -3.502         -5.534          89.62          61.27         -49.72           35.1          87.93
     1.412              -41.58          24.54          42.66          34.88         -3.517         -5.467          89.92          61.25         -49.84          35.45          88.09
     1.454              -41.63          24.56           42.8          34.92         -3.534         -5.388          90.29          61.23         -49.97          35.87          88.29
     1.496              -41.69          24.59          42.95          34.96         -3.554         -5.293          90.72           61.2         -50.14          36.36          88.53
     1.537              -41.76          24.62          43.14          35.01         -3.578          -5.18          91.23          61.16         -50.34          36.96          88.81
     1.579              -41.84          24.67          43.36          35.07         -3.608         -5.044          91.86          61.12         -50.58          37.68          89.15
      1.62              -41.94          24.72          43.63          35.14         -3.644         -4.877          92.62          61.07         -50.87          38.55          89.57
     1.662              -42.07          24.78          43.97          35.23         -3.688         -4.671          93.56          61.01         -51.23          39.64          90.08
     1.703              -42.22          24.86          44.39          35.34         -3.743         -4.414          94.74          60.93         -51.69          40.99          90.72
     1.745              -42.42          24.96          44.93          35.48         -3.813          -4.09          96.22          60.83         -52.25          42.69          91.53
     1.786              -42.67          25.09           45.6          35.66         -3.901         -3.678           98.1          60.71         -52.98          44.85          92.56
     1.828              -42.99          25.25          46.47          35.89         -4.014         -3.151          100.5          60.55          -53.9          47.62          93.88
     1.869              -43.39          25.46          47.58          36.19          -4.16         -2.475          103.6          60.34         -55.09          51.17          95.56
     1.911              -43.92          25.73          48.99          36.57         -4.345         -1.612          107.5          60.08          -56.6          55.71          97.72
     1.953              -44.57          26.07          50.78          37.04         -4.578        -0.5258          112.5          59.75         -58.51          61.41          100.4
     1.994              -45.38          26.48          52.95          37.62         -4.862         0.7975          118.6          59.35         -60.83          68.36          103.7
